<?xml version="1.0" standalone="no"?>
<!DOCTYPE svg PUBLIC "-//W3C//DTD SVG 20010904//EN"
 "http://www.w3.org/TR/2001/REC-SVG-20010904/DTD/svg10.dtd">
<svg version="1.0" xmlns="http://www.w3.org/2000/svg"
 width="153.000000pt" height="101.000000pt" viewBox="0 0 153.000000 101.000000"
 preserveAspectRatio="xMidYMid meet">
<metadata>
Created by potrace 1.10, written by Peter Selinger 2001-2011
</metadata>
<g transform="translate(0.000000,101.000000) scale(0.100000,-0.100000)"
fill="#000000" stroke="none">
<path d="M7 1003 c-4 -3 -7 -210 -7 -460 l0 -453 124 0 c68 0 131 -3 140 -6
11 -4 16 -1 16 11 0 15 -13 16 -130 13 l-130 -3 0 443 0 442 745 0 745 0 0
-442 0 -443 -135 0 c-74 0 -135 -3 -135 -7 0 -5 2 -8 5 -8 3 0 68 0 145 0
l140 0 -2 458 -3 457 -756 3 c-415 1 -759 -1 -762 -5z"/>
<path d="M547 849 c-32 -5 -78 -18 -104 -29 l-46 -20 7 -94 c11 -164 54 -295
120 -364 91 -97 252 -114 386 -40 30 16 82 38 115 48 115 37 236 125 276 202
10 21 19 57 19 82 0 37 -6 52 -32 82 -31 35 -34 36 -87 31 -31 -3 -66 -8 -79
-12 -20 -7 -23 -4 -21 16 1 13 1 31 1 40 -3 22 -65 47 -147 59 -83 11 -326 11
-408 -1z m421 -48 c79 -15 80 -42 4 -56 -23 -4 -37 -2 -45 8 -17 20 -193 9
-189 -12 6 -26 -246 2 -263 29 -24 39 332 61 493 31z m-403 -101 c33 -5 81
-10 106 -10 57 0 59 -5 59 -109 0 -64 3 -81 21 -99 20 -22 29 -22 61 6 15 12
21 12 48 -8 l32 -23 21 22 c18 18 22 35 25 120 l4 99 43 11 c23 6 48 18 55 26
12 14 16 13 41 -11 l28 -27 -23 -31 c-34 -46 -72 -201 -57 -233 14 -30 9 -39
-26 -47 -16 -4 -59 -23 -97 -43 -112 -57 -235 -58 -319 -3 -74 50 -122 163
-142 332 -8 72 -2 84 33 58 15 -11 54 -25 87 -30z m335 -97 l0 -128 -31 48
c-17 26 -35 47 -38 47 -4 0 -17 -18 -30 -40 -12 -22 -25 -41 -29 -44 -5 -3 -7
191 -2 242 0 1 29 2 65 2 l65 0 0 -127z m332 60 c39 -35 13 -115 -54 -167 -30
-22 -106 -56 -128 -56 -4 0 3 26 15 58 13 31 26 76 30 100 6 36 13 46 43 62
46 24 70 25 94 3z"/>
<path d="M400 160 c-26 -26 -26 -81 -2 -103 23 -21 56 -22 72 -2 13 16 11 17
-30 19 -22 1 -25 6 -25 36 0 30 3 35 25 36 43 2 46 4 26 19 -27 20 -42 19 -66
-5z"/>
<path d="M507 173 c-4 -3 -7 -28 -7 -53 0 -57 17 -75 72 -76 l38 0 0 68 c0 53
-3 68 -14 68 -11 0 -16 -15 -18 -52 -3 -45 -6 -53 -23 -53 -17 0 -20 8 -23 53
-3 49 -10 61 -25 45z"/>
<path d="M646 172 c-10 -17 0 -166 12 -170 7 -2 12 7 12 23 0 22 3 25 20 20
36 -12 60 11 60 59 0 53 -30 87 -59 69 -13 -8 -22 -8 -29 -1 -6 6 -12 6 -16 0z
m79 -42 c10 -33 -4 -62 -28 -58 -22 3 -34 35 -23 64 8 21 44 17 51 -6z"/>
<path d="M784 171 c-2 -2 -4 -42 -4 -88 0 -67 3 -83 15 -83 9 0 15 9 15 25 0
22 3 25 24 19 15 -3 29 1 40 11 21 22 21 88 -1 106 -15 13 -79 20 -89 10z m74
-64 c3 -35 1 -38 -20 -35 -24 3 -35 34 -24 64 12 30 41 11 44 -29z"/>
<path d="M942 164 c-32 -22 -31 -88 2 -110 26 -16 71 -16 71 1 0 5 -13 12 -29
15 -47 8 -45 30 3 30 34 0 41 3 41 20 0 22 -33 60 -53 60 -7 0 -23 -7 -35 -16z
m56 -31 c2 -8 -6 -13 -22 -13 -25 0 -33 10 -19 24 10 10 36 3 41 -11z"/>
<path d="M1050 165 c0 -8 5 -15 10 -15 6 0 10 -18 10 -40 0 -22 -4 -40 -10
-40 -5 0 -10 -7 -10 -15 0 -11 11 -15 40 -15 29 0 40 4 40 15 0 8 -7 15 -16
15 -25 0 -14 63 14 75 12 5 22 13 22 17 0 13 -21 20 -33 10 -7 -5 -21 -6 -32
-1 -30 11 -35 11 -35 -6z"/>
</g>
</svg>
