 <svg  version="1.0" xmlns="http://www.w3.org/2000/svg"  width="153.000000pt" height="101.000000pt" viewBox="0 0 153.000000 101.000000"  preserveAspectRatio="xMidYMid meet">  <g transform="translate(0.000000,101.000000) scale(0.100000,-0.100000)" fill="#cb17fd" stroke="none"> <path d="M70 1000 c0 -6 -16 -10 -35 -10 l-35 0 0 -119 c0 -82 4 -122 12 -127 6 -4 14 -2 16 4 2 7 13 12 25 12 20 -1 20 -2 4 -11 -9 -6 -14 -15 -11 -21 5 -7 -2 -9 -20 -6 l-26 5 0 -316 c0 -240 3 -320 13 -330 9 -11 9 -13 0 -7 -10 5 -13 -4 -13 -33 0 -40 1 -41 33 -41 18 0 39 6 45 12 10 10 15 10 22 -1 7 -12 11 -12 24 -2 11 9 16 10 16 2 0 -7 28 -11 80 -11 47 0 80 4 80 10 0 6 5 10 11 10 5 0 7 -4 4 -10 -7 -11 100 -8 111 3 4 4 13 2 20 -4 7 -6 30 -9 51 -7 30 2 37 7 35 20 -2 10 2 18 8 18 9 0 14 -14 11 -32 0 -5 219 -8 488 -8 l490 0 0 355 1 355 -22 4 c-13 3 -36 5 -53 4 -16 -1 -50 2 -75 5 -25 4 -69 9 -99 12 -32 2 -61 11 -72 21 -18 16 -19 16 -13 1 3 -9 2 -17 -4 -17 -6 0 -12 4 -14 9 -1 5 -33 11 -70 13 -36 2 -64 6 -61 11 2 4 -13 8 -34 8 -73 3 -133 16 -133 28 0 10 22 31 32 31 4 0 8 -6 8 -14 0 -10 7 -12 22 -8 17 4 20 2 15 -11 -4 -11 -2 -14 9 -10 8 3 13 12 10 19 -3 8 -1 14 4 14 6 0 10 -4 10 -9 0 -15 33 -22 42 -9 6 10 8 10 9 -2 0 -10 3 -8 9 5 5 11 9 14 9 8 1 -7 10 -13 21 -13 11 0 20 -4 20 -10 0 -5 8 -6 17 -3 13 5 15 2 10 -13 -5 -14 -2 -12 13 6 11 14 20 28 20 33 0 17 20 5 20 -13 0 -11 -5 -20 -11 -20 -5 0 -7 -5 -4 -10 5 -8 11 -8 19 -1 9 7 17 7 26 -2 10 -9 11 -9 6 1 -8 14 6 16 19 3 6 -5 23 -11 39 -13 26 -3 31 1 37 30 10 51 20 51 13 0 l-6 -45 47 -1 c46 -1 47 -1 67 46 12 26 31 76 43 111 15 45 24 59 28 47 4 -10 5 -22 2 -27 -3 -5 -1 -18 6 -30 7 -13 7 -19 1 -15 -7 4 -14 -9 -18 -31 -4 -21 -13 -52 -21 -70 -19 -46 -17 -50 22 -55 34 -4 48 5 22 15 -9 4 -9 6 1 6 9 1 12 34 11 134 -1 72 -3 124 -6 115 -5 -22 -23 -24 -23 -3 0 12 -20 15 -119 15 -116 0 -120 -1 -124 -22 -4 -23 -4 -23 -6 -1 l-1 22 -590 0 c-374 0 -590 -3 -590 -9z m438 -21 c14 -22 12 -23 -23 -7 -29 13 -32 23 -7 25 10 1 24 -7 30 -18z m252 11 c0 -5 -2 -10 -4 -10 -3 0 -8 5 -11 10 -3 6 -1 10 4 10 6 0 11 -4 11 -10z m34 2 c3 -5 -1 -9 -9 -9 -8 0 -15 4 -15 9 0 4 4 8 9 8 6 0 12 -4 15 -8z m81 -10 c-3 -3 -11 0 -18 7 -9 10 -8 11 6 5 10 -3 15 -9 12 -12z m302 -14 c-3 -7 -5 -2 -5 12 0 14 2 19 5 13 2 -7 2 -19 0 -25z m-907 1 c0 -15 -18 -19 -23 -6 -3 8 1 14 9 14 8 0 14 -4 14 -8z m84 -15 c5 -13 3 -14 -6 -7 -7 6 -20 13 -28 16 -10 4 -8 6 6 6 12 1 25 -6 28 -15z m493 9 c-4 -3 -10 -3 -14 0 -3 4 0 7 7 7 7 0 10 -3 7 -7z m403 -15 c0 -7 -5 -20 -10 -28 -7 -12 -12 -12 -22 -2 -9 9 -9 12 5 12 9 0 17 7 17 15 0 8 2 15 5 15 3 0 5 -6 5 -12z m-1217 -13 c-3 -9 -8 -14 -10 -11 -3 3 -2 9 2 15 9 16 15 13 8 -4z m721 -10 c-9 -14 -18 -25 -21 -25 -5 0 5 18 20 38 17 22 18 13 1 -13z m423 18 c-4 -3 -10 -3 -14 0 -3 4 0 7 7 7 7 0 10 -3 7 -7z m-722 -13 c7 -12 -2 -12 -30 0 -19 8 -19 9 2 9 12 1 25 -3 28 -9z m498 -3 c3 -8 -1 -14 -8 -14 -7 0 -11 6 -8 14 3 7 6 13 8 13 2 0 5 -6 8 -13z m192 3 c3 -5 4 -10 1 -10 -3 0 -8 5 -11 10 -3 6 -4 10 -1 10 3 0 8 -4 11 -10z m-995 -4 c0 -3 -4 -8 -10 -11 -5 -3 -10 -1 -10 4 0 6 5 11 10 11 6 0 10 -2 10 -4z m90 -12 c0 -2 -7 -4 -15 -4 -8 0 -15 4 -15 10 0 5 7 7 15 4 8 -4 15 -8 15 -10z m287 9 c-4 -3 -10 -3 -14 0 -3 4 0 7 7 7 7 0 10 -3 7 -7z m873 3 c0 -3 -5 -8 -12 -12 -7 -4 -8 -3 -4 4 7 12 16 16 16 8z m-1282 -54 c0 -16 -5 -29 -11 -29 -7 0 -12 16 -13 38 0 28 3 36 11 29 7 -6 12 -23 13 -38z m202 38 c0 -5 -4 -10 -10 -10 -5 0 -10 5 -10 10 0 6 5 10 10 10 6 0 10 -4 10 -10z m227 -17 c-4 -3 -7 0 -7 7 0 7 3 10 7 7 3 -4 3 -10 0 -14z m156 5 c3 -8 -5 -14 -19 -14 -28 -2 -32 12 -6 19 9 3 18 5 18 6 1 0 4 -5 7 -11z m631 -14 c-3 -35 -14 -44 -14 -12 0 21 7 38 15 38 1 0 1 -12 -1 -26z m-1289 -34 c-4 -11 -11 -20 -16 -20 -6 0 -5 9 2 22 9 17 9 23 0 26 -6 2 -8 8 -5 14 10 16 26 -19 19 -42z m575 26 c8 -3 5 -4 -7 -2 -13 2 -23 -1 -23 -7 0 -7 -4 -6 -10 3 -9 15 10 36 20 21 3 -4 12 -11 20 -15z m520 14 c0 -5 -5 -10 -11 -10 -5 0 -7 5 -4 10 3 6 8 10 11 10 2 0 4 -4 4 -10z m44 -23 c6 -24 5 -26 -7 -16 -8 8 -12 22 -9 32 6 22 7 20 16 -16z m-518 3 c8 0 14 -4 14 -9 0 -5 -9 -7 -20 -4 -11 3 -20 13 -19 22 0 10 2 11 6 4 2 -7 11 -13 19 -13z m104 -12 c0 -4 5 -8 11 -8 5 0 8 4 5 9 -8 12 15 20 37 12 26 -9 4 -27 -43 -36 -29 -5 -39 -2 -54 14 -12 13 -14 21 -7 21 7 0 9 5 6 10 -4 6 5 5 19 -2 14 -6 26 -15 26 -20z m120 -9 c-7 -11 -14 -18 -17 -15 -3 3 0 12 7 21 18 21 23 19 10 -6z m-185 1 c3 -5 1 -10 -4 -10 -6 0 -11 5 -11 10 0 6 2 10 4 10 3 0 8 -4 11 -10z m165 -42 c0 -4 -9 -6 -20 -5 -22 1 -27 23 -7 30 11 4 27 -10 27 -25z m-750 18 c0 -11 -19 -15 -25 -6 -3 5 1 10 9 10 9 0 16 -2 16 -4z m38 -76 c4 -13 3 -13 -10 -2 -11 9 -17 9 -20 2 -2 -6 -11 -8 -21 -5 -9 4 -14 11 -11 17 9 14 57 5 62 -12z m674 -7 c-6 -3 -10 -9 -7 -13 3 -5 12 -7 19 -4 8 3 17 1 20 -4 9 -14 -37 -23 -47 -9 -7 9 -10 9 -14 -1 -7 -18 -33 -42 -46 -42 -6 0 -2 6 8 14 10 7 20 24 22 37 4 31 33 54 47 38 8 -8 7 -13 -2 -16z m-572 -3 c12 -8 11 -10 -7 -10 -13 0 -23 5 -23 10 0 13 11 13 30 0z m317 -7 c-4 -3 -10 -3 -14 0 -3 4 0 7 7 7 7 0 10 -3 7 -7z m63 -3 c0 -5 -8 -10 -17 -10 -15 0 -16 2 -3 10 19 12 20 12 20 0z m107 -7 c-4 -3 -7 0 -7 7 0 7 3 10 7 7 3 -4 3 -10 0 -14z m-430 0 c-4 -3 -10 -3 -14 0 -3 4 0 7 7 7 7 0 10 -3 7 -7z m210 0 c-4 -3 -10 -3 -14 0 -3 4 0 7 7 7 7 0 10 -3 7 -7z m171 0 c-10 -2 -26 -2 -35 0 -10 3 -2 5 17 5 19 0 27 -2 18 -5z m629 -30 c-4 -3 -10 -3 -14 0 -3 4 0 7 7 7 7 0 10 -3 7 -7z m-880 -10 c-4 -3 -10 -3 -14 0 -3 4 0 7 7 7 7 0 10 -3 7 -7z m950 0 c-4 -3 -10 -3 -14 0 -3 4 0 7 7 7 7 0 10 -3 7 -7z m-1050 -19 c-3 -3 -12 -4 -19 -1 -8 3 -5 6 6 6 11 1 17 -2 13 -5z m536 -71 c31 -41 36 -90 10 -100 -9 -4 -19 -1 -21 5 -2 7 -10 19 -18 26 -8 8 -14 19 -14 25 0 6 -5 11 -11 11 -5 0 -7 5 -4 10 3 6 1 10 -5 10 -6 0 -8 5 -5 10 3 6 1 10 -4 10 -6 0 -11 5 -11 11 0 6 7 9 15 5 15 -5 19 3 16 34 -1 11 2 10 12 -4 6 -10 24 -34 40 -53z m42 57 c3 -5 1 -10 -4 -10 -6 0 -11 5 -11 10 0 6 2 10 4 10 3 0 8 -4 11 -10z m-348 -67 c-4 -3 -10 -3 -14 0 -3 4 0 7 7 7 7 0 10 -3 7 -7z m730 1 c-3 -3 -12 -4 -19 -1 -8 3 -5 6 6 6 11 1 17 -2 13 -5z m96 -1 c-7 -2 -21 -2 -30 0 -10 3 -4 5 12 5 17 0 24 -2 18 -5z m-300 -13 c9 0 17 -3 17 -8 0 -4 -20 -6 -45 -4 -26 3 -42 8 -39 14 4 5 16 7 28 4 11 -3 29 -6 39 -6z m-276 -42 c-3 -13 -12 -46 -19 -75 -7 -28 -24 -63 -38 -78 -19 -20 -20 -24 -7 -19 13 5 18 2 17 -7 -1 -8 -2 -21 -1 -29 1 -18 60 -56 79 -52 8 2 6 -4 -5 -17 -27 -32 -57 -26 -89 16 -19 26 -23 35 -11 30 23 -9 21 5 -3 34 -14 17 -22 20 -27 12 -6 -8 -16 -8 -41 2 -23 10 -38 27 -52 60 -13 30 -31 52 -55 66 -19 12 -33 24 -30 28 2 5 37 11 77 14 40 4 93 13 118 21 25 8 56 15 69 15 19 1 22 -3 18 -21z m-487 -48 c0 -5 -5 -10 -11 -10 -5 0 -7 5 -4 10 3 6 8 10 11 10 2 0 4 -4 4 -10z m37 -7 c-4 -3 -10 -3 -14 0 -3 4 0 7 7 7 7 0 10 -3 7 -7z m239 -129 c-9 -9 -19 -14 -22 -11 -3 2 3 12 12 21 9 9 19 15 21 12 3 -3 -2 -13 -11 -22z m301 19 c-4 -3 -10 -3 -14 0 -3 4 0 7 7 7 7 0 10 -3 7 -7z m-631 -62 c-11 -17 -43 -13 -43 4 0 9 6 14 14 11 7 -3 13 0 13 6 0 9 3 9 11 1 6 -6 8 -16 5 -22z m-43 -34 c-8 -15 -23 5 -23 31 l0 27 14 -25 c7 -14 11 -28 9 -33z m257 19 c-6 -6 -10 -20 -10 -32 0 -13 -4 -26 -10 -29 -6 -3 -10 5 -10 19 0 13 -3 31 -6 40 -4 11 -1 16 10 16 9 0 16 6 16 13 0 8 3 7 10 -3 6 -9 6 -18 0 -24z m519 14 c-7 -5 -19 -6 -26 -3 -11 5 -12 8 -2 13 7 5 19 6 26 3 11 -5 12 -8 2 -13z m-861 -2 c-3 -7 -11 -13 -18 -13 -7 0 -15 6 -17 13 -3 7 4 12 17 12 13 0 20 -5 18 -12z m12 -33 c0 -16 -27 -32 -36 -22 -7 6 17 36 29 37 4 0 7 -7 7 -15z m45 -13 c-3 -3 1 -12 8 -21 11 -14 10 -14 -6 -2 -14 11 -21 11 -29 3 -7 -7 -19 -12 -28 -11 -9 0 -6 4 8 10 13 5 20 13 17 19 -11 18 5 32 21 19 8 -6 12 -14 9 -17z m212 21 c-4 -3 -10 -3 -14 0 -3 4 0 7 7 7 7 0 10 -3 7 -7z m188 -3 c3 -5 4 -10 1 -10 -3 0 -8 5 -11 10 -3 6 -4 10 -1 10 3 0 8 -4 11 -10z m49 -15 c-5 -11 1 -15 25 -15 26 0 30 -3 27 -22 -1 -13 -10 -23 -19 -23 -8 0 -19 -4 -23 -8 -4 -4 -2 -7 4 -7 7 0 12 -6 12 -14 0 -9 -7 -12 -19 -9 -10 3 -22 0 -25 -6 -4 -6 -2 -11 5 -11 8 0 8 -4 -1 -15 -7 -8 -16 -15 -20 -15 -13 0 -4 39 14 59 18 20 14 47 -5 35 -9 -5 -3 39 8 59 8 14 22 7 17 -8z m66 5 c-8 -5 -22 -9 -30 -9 -10 0 -8 3 5 9 27 12 43 12 25 0z m147 -44 c-20 -21 -29 -20 -25 2 4 22 20 34 32 22 5 -5 2 -15 -7 -24z m-360 17 c-4 -3 -10 -3 -14 0 -3 4 0 7 7 7 7 0 10 -3 7 -7z m-143 -34 c12 10 16 11 16 1 0 -8 8 -10 21 -7 17 4 18 3 8 -9 -7 -9 -20 -12 -33 -8 -17 5 -19 4 -8 -7 16 -18 15 -32 -2 -26 -8 3 -17 0 -19 -8 -8 -19 23 -12 38 8 7 9 15 14 18 10 12 -12 7 -21 -14 -26 -16 -4 -20 -11 -15 -24 6 -17 5 -17 -7 -1 -12 15 -16 16 -33 3 -10 -8 -14 -15 -7 -15 16 0 36 -37 28 -50 -8 -13 -30 9 -40 39 -4 13 -12 20 -21 17 -7 -3 -16 0 -20 6 -4 7 -3 8 4 4 12 -7 52 62 52 91 0 15 2 15 9 4 8 -12 12 -12 25 -2z m396 1 c8 -5 11 -12 8 -16 -4 -3 -14 1 -23 10 -18 17 -9 21 15 6z m74 -6 c8 -21 8 -24 -5 -24 -5 0 -7 5 -4 10 3 6 1 10 -4 10 -6 0 -11 5 -11 10 0 16 17 12 24 -6z m-197 -8 c-5 -16 -24 -18 -30 -2 -4 10 0 14 14 13 10 -1 18 -6 16 -11z m463 -14 c0 -15 -2 -15 -10 -2 -13 20 -13 33 0 25 6 -3 10 -14 10 -23z m-1004 -9 c-10 -10 -19 5 -10 18 6 11 8 11 12 0 2 -7 1 -15 -2 -18z m354 16 c0 -5 4 -8 10 -4 5 3 16 -8 25 -24 18 -36 19 -44 3 -38 -7 2 -21 0 -30 -5 -14 -6 -16 -5 -12 7 4 8 2 15 -4 15 -13 0 -23 27 -16 45 7 17 24 20 24 4z m557 -21 c-3 -7 -5 -2 -5 12 0 14 2 19 5 13 2 -7 2 -19 0 -25z m-451 -6 c1 -20 -26 -35 -42 -23 -15 11 -13 43 2 37 8 -3 14 -1 14 5 0 20 25 2 26 -19z m-496 2 c0 -2 -9 -4 -20 -4 -11 0 -20 4 -20 9 0 5 9 7 20 4 11 -3 20 -7 20 -9z m1296 5 c3 -6 1 -16 -6 -22 -10 -9 -12 -8 -7 5 3 9 1 19 -6 22 -9 3 -9 5 0 5 6 1 15 -4 19 -10z m-419 -16 c-4 -3 -7 0 -7 7 0 7 3 10 7 7 3 -4 3 -10 0 -14z m470 0 c-4 -3 -7 0 -7 7 0 7 3 10 7 7 3 -4 3 -10 0 -14z m-530 0 c-4 -3 -10 -3 -14 0 -3 4 0 7 7 7 7 0 10 -3 7 -7z m156 -8 c-3 -9 -8 -14 -10 -11 -3 3 -2 9 2 15 9 16 15 13 8 -4z m154 8 c-4 -3 -10 -3 -14 0 -3 4 0 7 7 7 7 0 10 -3 7 -7z m127 -5 c-3 -4 0 -18 7 -30 10 -19 8 -18 -15 5 -31 33 -31 33 -7 33 11 0 17 -4 15 -8z m86 -19 c0 -6 -4 -7 -10 -4 -5 3 -10 11 -10 16 0 6 5 7 10 4 6 -3 10 -11 10 -16z m-689 -31 l-21 -22 0 22 c0 13 6 22 15 22 8 0 15 6 16 13 0 9 2 9 6 0 2 -7 -5 -22 -16 -35z m206 35 c-4 -3 -10 -3 -14 0 -3 4 0 7 7 7 7 0 10 -3 7 -7z m320 0 c-4 -3 -10 -3 -14 0 -3 4 0 7 7 7 7 0 10 -3 7 -7z m180 -10 c-4 -3 -7 0 -7 7 0 7 3 10 7 7 3 -4 3 -10 0 -14z m-1239 -5 c19 -19 14 -26 -13 -20 -25 4 -31 13 -18 25 9 10 17 9 31 -5z m39 5 c-4 -3 -10 -3 -14 0 -3 4 0 7 7 7 7 0 10 -3 7 -7z m180 -10 c-4 -3 -7 0 -7 7 0 7 3 10 7 7 3 -4 3 -10 0 -14z m173 7 c0 -5 -2 -10 -4 -10 -3 0 -8 5 -11 10 -3 6 -1 10 4 10 6 0 11 -4 11 -10z m230 6 c0 -3 -4 -8 -10 -11 -5 -3 -10 -1 -10 4 0 6 5 11 10 11 6 0 10 -2 10 -4z m77 -3 c-4 -3 -10 -3 -14 0 -3 4 0 7 7 7 7 0 10 -3 7 -7z m318 -3 c3 -5 4 -10 1 -10 -3 0 -8 5 -11 10 -3 6 -4 10 -1 10 3 0 8 -4 11 -10z m105 -22 c0 -5 -4 -8 -10 -8 -5 0 -10 10 -10 23 0 18 2 19 10 7 5 -8 10 -18 10 -22z m51 5 c-8 -15 -10 -15 -11 -2 0 17 10 32 18 25 2 -3 -1 -13 -7 -23z m-1237 2 c3 -8 1 -15 -4 -15 -6 0 -10 7 -10 15 0 8 2 15 4 15 2 0 6 -7 10 -15z m401 5 c-3 -5 -2 -10 4 -10 6 0 8 -6 5 -14 -6 -16 -44 -18 -41 -1 1 5 9 15 17 22 18 15 23 16 15 3z m612 -12 c-3 -8 -6 -5 -6 6 -1 11 2 17 5 13 3 -3 4 -12 1 -19z m-360 -5 c-4 -3 -7 0 -7 7 0 7 3 10 7 7 3 -4 3 -10 0 -14z m393 -11 c0 -15 -2 -15 -10 -2 -13 20 -13 33 0 25 6 -3 10 -14 10 -23z m-1123 1 c-4 -3 -7 0 -7 7 0 7 3 10 7 7 3 -4 3 -10 0 -14z m48 7 c3 -5 -1 -10 -10 -10 -9 0 -13 5 -10 10 3 6 8 10 10 10 2 0 7 -4 10 -10z m311 -12 c-1 -16 4 -22 14 -20 8 2 11 0 7 -4 -10 -11 -38 -14 -32 -4 3 4 -2 10 -10 14 -20 7 -19 24 3 29 9 3 17 5 18 6 0 0 0 -9 0 -21z m841 -15 c-4 -3 -7 0 -7 7 0 7 3 10 7 7 3 -4 3 -10 0 -14z m-982 -23 c0 -7 -6 -15 -14 -18 -8 -3 -11 0 -7 6 4 6 -2 8 -13 5 -16 -4 -19 -1 -14 15 4 16 10 19 26 13 12 -5 22 -14 22 -21z m443 5 c-3 -3 -9 2 -12 12 -6 14 -5 15 5 6 7 -7 10 -15 7 -18z m29 8 c-4 -3 -7 0 -7 7 0 7 3 10 7 7 3 -4 3 -10 0 -14z m93 -14 c0 -5 -7 -6 -15 -3 -8 4 -15 13 -15 21 0 13 3 13 15 3 8 -7 15 -16 15 -21z"/> <path d="M730 866 c0 -2 7 -7 16 -10 8 -3 12 -2 9 4 -6 10 -25 14 -25 6z"/> <path d="M695 210 c3 -5 8 -10 11 -10 3 0 2 5 -1 10 -3 6 -8 10 -11 10 -3 0 -2 -4 1 -10z"/> <path d="M325 120 c-3 -5 -1 -10 4 -10 6 0 11 5 11 10 0 6 -2 10 -4 10 -3 0 -8 -4 -11 -10z"/> <path d="M1093 773 c4 -3 10 -3 14 0 3 4 0 7 -7 7 -7 0 -10 -3 -7 -7z"/> </g> </svg> 